<mxfile host="app.diagrams.net" agent="Mozilla/5.0 (Macintosh; Intel Mac OS X 10_15_7) AppleWebKit/605.1.15 (KHTML, like Gecko) Version/18.3.1 Safari/605.1.15" version="26.2.10">
  <diagram name="Page-1" id="Ia9hCRzbgBy5XsJq7HXF">
    <mxGraphModel dx="1020" dy="697" grid="1" gridSize="10" guides="1" tooltips="1" connect="1" arrows="1" fold="1" page="1" pageScale="1" pageWidth="850" pageHeight="1100" math="0" shadow="0">
      <root>
        <mxCell id="0" />
        <mxCell id="1" parent="0" />
        <mxCell id="m0VosQBLJgG95cNkHNOX-3" value="&lt;font style=&quot;font-size: 18px;&quot;&gt;Regional High Availability Architecture&lt;/font&gt;" style="text;strokeColor=none;fillColor=none;html=1;fontSize=24;fontStyle=1;verticalAlign=middle;align=center;" vertex="1" parent="1">
          <mxGeometry x="65" y="30" width="690" height="40" as="geometry" />
        </mxCell>
        <mxCell id="m0VosQBLJgG95cNkHNOX-1" value="AWS Cloud Account" style="points=[[0,0],[0.25,0],[0.5,0],[0.75,0],[1,0],[1,0.25],[1,0.5],[1,0.75],[1,1],[0.75,1],[0.5,1],[0.25,1],[0,1],[0,0.75],[0,0.5],[0,0.25]];outlineConnect=0;gradientColor=none;html=1;whiteSpace=wrap;fontSize=12;fontStyle=0;container=1;pointerEvents=0;collapsible=0;recursiveResize=0;shape=mxgraph.aws4.group;grIcon=mxgraph.aws4.group_aws_cloud_alt;strokeColor=#232F3E;fillColor=none;verticalAlign=top;align=left;spacingLeft=30;fontColor=#232F3E;dashed=0;" vertex="1" parent="1">
          <mxGeometry x="10" y="90" width="730" height="670" as="geometry" />
        </mxCell>
        <mxCell id="m0VosQBLJgG95cNkHNOX-32" value="" style="verticalLabelPosition=bottom;html=1;verticalAlign=top;strokeWidth=1;align=center;outlineConnect=0;dashed=0;outlineConnect=0;shape=mxgraph.aws3d.elasticLoadBalancing;fillColor=#ECECEC;strokeColor=#5E5E5E;aspect=fixed;" vertex="1" parent="m0VosQBLJgG95cNkHNOX-1">
          <mxGeometry x="329.87" y="180" width="50.26" height="48.17" as="geometry" />
        </mxCell>
        <mxCell id="m0VosQBLJgG95cNkHNOX-50" value="ELB" style="text;html=1;align=center;verticalAlign=middle;resizable=0;points=[];autosize=1;strokeColor=none;fillColor=none;" vertex="1" parent="m0VosQBLJgG95cNkHNOX-1">
          <mxGeometry x="330.13" y="228.17000000000002" width="50" height="30" as="geometry" />
        </mxCell>
        <mxCell id="m0VosQBLJgG95cNkHNOX-31" value="Internet&#xa;gateway" style="sketch=0;outlineConnect=0;fontColor=#232F3E;gradientColor=none;strokeColor=#232F3E;fillColor=#ffffff;dashed=0;verticalLabelPosition=bottom;verticalAlign=top;align=center;html=1;fontSize=12;fontStyle=0;aspect=fixed;shape=mxgraph.aws4.resourceIcon;resIcon=mxgraph.aws4.internet_gateway;" vertex="1" parent="m0VosQBLJgG95cNkHNOX-1">
          <mxGeometry x="330.13" y="10" width="50" height="50" as="geometry" />
        </mxCell>
        <mxCell id="m0VosQBLJgG95cNkHNOX-57" value="" style="endArrow=none;dashed=1;html=1;dashPattern=1 3;strokeWidth=2;rounded=0;" edge="1" parent="m0VosQBLJgG95cNkHNOX-1">
          <mxGeometry width="50" height="50" relative="1" as="geometry">
            <mxPoint x="220" y="530" as="sourcePoint" />
            <mxPoint x="500" y="530" as="targetPoint" />
          </mxGeometry>
        </mxCell>
        <mxCell id="m0VosQBLJgG95cNkHNOX-64" value="VPC" style="points=[[0,0],[0.25,0],[0.5,0],[0.75,0],[1,0],[1,0.25],[1,0.5],[1,0.75],[1,1],[0.75,1],[0.5,1],[0.25,1],[0,1],[0,0.75],[0,0.5],[0,0.25]];outlineConnect=0;gradientColor=none;html=1;whiteSpace=wrap;fontSize=12;fontStyle=0;container=1;pointerEvents=0;collapsible=0;recursiveResize=0;shape=mxgraph.aws4.group;grIcon=mxgraph.aws4.group_vpc2;strokeColor=#8C4FFF;fillColor=none;verticalAlign=top;align=left;spacingLeft=30;fontColor=#AAB7B8;dashed=0;" vertex="1" parent="m0VosQBLJgG95cNkHNOX-1">
          <mxGeometry x="40" y="100" width="630" height="550" as="geometry" />
        </mxCell>
        <mxCell id="m0VosQBLJgG95cNkHNOX-24" value="&lt;span style=&quot;text-align: center;&quot;&gt;us-east-1 region&lt;/span&gt;" style="points=[[0,0],[0.25,0],[0.5,0],[0.75,0],[1,0],[1,0.25],[1,0.5],[1,0.75],[1,1],[0.75,1],[0.5,1],[0.25,1],[0,1],[0,0.75],[0,0.5],[0,0.25]];outlineConnect=0;gradientColor=none;html=1;whiteSpace=wrap;fontSize=12;fontStyle=0;container=1;pointerEvents=0;collapsible=0;recursiveResize=0;shape=mxgraph.aws4.group;grIcon=mxgraph.aws4.group_region;strokeColor=#00A4A6;fillColor=none;verticalAlign=top;align=left;spacingLeft=30;fontColor=#147EBA;dashed=1;" vertex="1" parent="m0VosQBLJgG95cNkHNOX-64">
          <mxGeometry x="20" y="30" width="280" height="500" as="geometry" />
        </mxCell>
        <mxCell id="m0VosQBLJgG95cNkHNOX-34" value="" style="outlineConnect=0;dashed=0;verticalLabelPosition=bottom;verticalAlign=top;align=center;html=1;shape=mxgraph.aws3.ec2;fillColor=#F58534;gradientColor=none;" vertex="1" parent="m0VosQBLJgG95cNkHNOX-24">
          <mxGeometry x="101.75" y="80" width="76.5" height="93" as="geometry" />
        </mxCell>
        <mxCell id="m0VosQBLJgG95cNkHNOX-36" value="" style="edgeStyle=orthogonalEdgeStyle;html=1;endArrow=block;elbow=vertical;startArrow=none;endFill=1;strokeColor=#545B64;rounded=0;" edge="1" parent="m0VosQBLJgG95cNkHNOX-24">
          <mxGeometry width="100" relative="1" as="geometry">
            <mxPoint x="139.5" y="210" as="sourcePoint" />
            <mxPoint x="139.5" y="330" as="targetPoint" />
          </mxGeometry>
        </mxCell>
        <mxCell id="m0VosQBLJgG95cNkHNOX-38" value="" style="sketch=0;points=[[0,0,0],[0.25,0,0],[0.5,0,0],[0.75,0,0],[1,0,0],[0,1,0],[0.25,1,0],[0.5,1,0],[0.75,1,0],[1,1,0],[0,0.25,0],[0,0.5,0],[0,0.75,0],[1,0.25,0],[1,0.5,0],[1,0.75,0]];outlineConnect=0;fontColor=#232F3E;fillColor=#C925D1;strokeColor=#ffffff;dashed=0;verticalLabelPosition=bottom;verticalAlign=top;align=center;html=1;fontSize=12;fontStyle=0;aspect=fixed;shape=mxgraph.aws4.resourceIcon;resIcon=mxgraph.aws4.rds;" vertex="1" parent="m0VosQBLJgG95cNkHNOX-24">
          <mxGeometry x="101.75" y="350" width="78" height="78" as="geometry" />
        </mxCell>
        <mxCell id="m0VosQBLJgG95cNkHNOX-43" value="RDS Primary&lt;div&gt;Multi-A-Z Deployment&lt;/div&gt;" style="text;html=1;align=center;verticalAlign=middle;whiteSpace=wrap;rounded=0;" vertex="1" parent="m0VosQBLJgG95cNkHNOX-24">
          <mxGeometry x="80" y="428" width="131.13" height="30" as="geometry" />
        </mxCell>
        <mxCell id="m0VosQBLJgG95cNkHNOX-44" value="EC2" style="text;html=1;align=center;verticalAlign=middle;whiteSpace=wrap;rounded=0;" vertex="1" parent="m0VosQBLJgG95cNkHNOX-24">
          <mxGeometry x="110" y="173" width="60" height="30" as="geometry" />
        </mxCell>
        <mxCell id="m0VosQBLJgG95cNkHNOX-48" value="" style="endArrow=classic;html=1;rounded=0;" edge="1" parent="m0VosQBLJgG95cNkHNOX-24">
          <mxGeometry width="50" height="50" relative="1" as="geometry">
            <mxPoint x="265" y="80" as="sourcePoint" />
            <mxPoint x="190" y="130" as="targetPoint" />
            <Array as="points" />
          </mxGeometry>
        </mxCell>
        <mxCell id="m0VosQBLJgG95cNkHNOX-4" value="&lt;span style=&quot;text-align: center;&quot;&gt;us-east-2 region&lt;/span&gt;" style="points=[[0,0],[0.25,0],[0.5,0],[0.75,0],[1,0],[1,0.25],[1,0.5],[1,0.75],[1,1],[0.75,1],[0.5,1],[0.25,1],[0,1],[0,0.75],[0,0.5],[0,0.25]];outlineConnect=0;gradientColor=none;html=1;whiteSpace=wrap;fontSize=12;fontStyle=0;container=1;pointerEvents=0;collapsible=0;recursiveResize=0;shape=mxgraph.aws4.group;grIcon=mxgraph.aws4.group_region;strokeColor=#00A4A6;fillColor=none;verticalAlign=top;align=left;spacingLeft=30;fontColor=#147EBA;dashed=1;" vertex="1" parent="m0VosQBLJgG95cNkHNOX-64">
          <mxGeometry x="320" y="25" width="300" height="500" as="geometry" />
        </mxCell>
        <mxCell id="m0VosQBLJgG95cNkHNOX-33" value="" style="outlineConnect=0;dashed=0;verticalLabelPosition=bottom;verticalAlign=top;align=center;html=1;shape=mxgraph.aws3.ec2;fillColor=#F58534;gradientColor=none;" vertex="1" parent="m0VosQBLJgG95cNkHNOX-4">
          <mxGeometry x="90" y="90" width="76.5" height="93" as="geometry" />
        </mxCell>
        <mxCell id="m0VosQBLJgG95cNkHNOX-39" value="" style="outlineConnect=0;dashed=0;verticalLabelPosition=bottom;verticalAlign=top;align=center;html=1;shape=mxgraph.aws3.rds_db_instance_standby_multi_az;fillColor=#2E73B8;gradientColor=none;" vertex="1" parent="m0VosQBLJgG95cNkHNOX-4">
          <mxGeometry x="103.5" y="350" width="49.5" height="66" as="geometry" />
        </mxCell>
        <mxCell id="m0VosQBLJgG95cNkHNOX-41" value="RDS DB&lt;div&gt;Instance&lt;/div&gt;&lt;div&gt;standby&amp;nbsp;&lt;/div&gt;&lt;div&gt;(multi-A-Z)&lt;/div&gt;" style="text;html=1;align=center;verticalAlign=middle;whiteSpace=wrap;rounded=0;" vertex="1" parent="m0VosQBLJgG95cNkHNOX-4">
          <mxGeometry x="98.25" y="440" width="60" height="30" as="geometry" />
        </mxCell>
        <mxCell id="m0VosQBLJgG95cNkHNOX-42" style="edgeStyle=orthogonalEdgeStyle;rounded=0;orthogonalLoop=1;jettySize=auto;html=1;exitX=0.5;exitY=1;exitDx=0;exitDy=0;" edge="1" parent="m0VosQBLJgG95cNkHNOX-4" source="m0VosQBLJgG95cNkHNOX-41" target="m0VosQBLJgG95cNkHNOX-41">
          <mxGeometry relative="1" as="geometry" />
        </mxCell>
        <mxCell id="m0VosQBLJgG95cNkHNOX-45" value="EC2" style="text;html=1;align=center;verticalAlign=middle;whiteSpace=wrap;rounded=0;" vertex="1" parent="m0VosQBLJgG95cNkHNOX-4">
          <mxGeometry x="98.25" y="180" width="60" height="30" as="geometry" />
        </mxCell>
        <mxCell id="m0VosQBLJgG95cNkHNOX-46" value="" style="edgeStyle=orthogonalEdgeStyle;html=1;endArrow=block;elbow=vertical;startArrow=none;endFill=1;strokeColor=#545B64;rounded=0;" edge="1" parent="m0VosQBLJgG95cNkHNOX-4">
          <mxGeometry width="100" relative="1" as="geometry">
            <mxPoint x="127.75" y="210" as="sourcePoint" />
            <mxPoint x="127.75" y="330" as="targetPoint" />
            <Array as="points">
              <mxPoint x="128.25" y="250" />
              <mxPoint x="128.25" y="250" />
            </Array>
          </mxGeometry>
        </mxCell>
        <mxCell id="m0VosQBLJgG95cNkHNOX-49" value="" style="endArrow=classic;html=1;rounded=0;" edge="1" parent="m0VosQBLJgG95cNkHNOX-4">
          <mxGeometry width="50" height="50" relative="1" as="geometry">
            <mxPoint x="20" y="85" as="sourcePoint" />
            <mxPoint x="90" y="135" as="targetPoint" />
          </mxGeometry>
        </mxCell>
        <mxCell id="m0VosQBLJgG95cNkHNOX-63" value="&lt;p style=&quot;text-align: start;&quot; class=&quot;&quot; data-end=&quot;679&quot; data-start=&quot;454&quot;&gt;&lt;strong data-end=&quot;480&quot; data-start=&quot;454&quot;&gt;High Availability &lt;/strong&gt;is essential to ensure application continues functioning even when part of the infrastructure fails. AWS helps by allowing you to deploy across multiple AZs, which are isolated failure domains.&lt;/p&gt;&lt;h5 style=&quot;text-align: start;&quot; class=&quot;&quot; data-end=&quot;748&quot; data-start=&quot;681&quot;&gt;&lt;strong data-end=&quot;748&quot; data-start=&quot;690&quot;&gt;Why this setup is highly available and fault-tolerant:&lt;/strong&gt;&lt;/h5&gt;&lt;ul style=&quot;text-align: start;&quot; data-end=&quot;1067&quot; data-start=&quot;749&quot;&gt;&lt;li class=&quot;&quot; data-end=&quot;823&quot; data-start=&quot;749&quot;&gt;&lt;p class=&quot;&quot; data-end=&quot;823&quot; data-start=&quot;751&quot;&gt;&lt;strong data-end=&quot;767&quot; data-start=&quot;751&quot;&gt;Multiple AZs&lt;/strong&gt;: If one AZ fails, traffic is routed to the healthy one.&lt;/p&gt;&lt;/li&gt;&lt;li class=&quot;&quot; data-end=&quot;899&quot; data-start=&quot;824&quot;&gt;&lt;p class=&quot;&quot; data-end=&quot;899&quot; data-start=&quot;826&quot;&gt;&lt;strong data-end=&quot;844&quot; data-start=&quot;826&quot;&gt;EC2 in each AZ&lt;/strong&gt;: Even if one EC2 fails, the other can handle requests.&lt;/p&gt;&lt;/li&gt;&lt;li class=&quot;&quot; data-end=&quot;995&quot; data-start=&quot;900&quot;&gt;&lt;p class=&quot;&quot; data-end=&quot;995&quot; data-start=&quot;902&quot;&gt;&lt;strong data-end=&quot;918&quot; data-start=&quot;902&quot;&gt;RDS Multi-AZ&lt;/strong&gt;: Automatic failover from primary to standby instance ensures no DB downtime.&lt;/p&gt;&lt;/li&gt;&lt;li class=&quot;&quot; data-end=&quot;1067&quot; data-start=&quot;996&quot;&gt;&lt;p class=&quot;&quot; data-end=&quot;1067&quot; data-start=&quot;998&quot;&gt;&lt;strong data-end=&quot;1005&quot; data-start=&quot;998&quot;&gt;ELB&lt;/strong&gt;: Routes requests only to healthy EC2 instances automatically.&lt;/p&gt;&lt;/li&gt;&lt;/ul&gt;" style="text;html=1;align=center;verticalAlign=middle;whiteSpace=wrap;rounded=0;" vertex="1" parent="1">
          <mxGeometry x="40" y="840" width="720" height="60" as="geometry" />
        </mxCell>
      </root>
    </mxGraphModel>
  </diagram>
</mxfile>
